<svg xmlns="http://www.w3.org/2000/svg" height="42" viewBox="0 -960 960 960" width="42" fill="white"><path d="M288.872-75q-29.135 0-49.753-20.747-20.619-20.747-20.619-49.881t20.747-49.753Q259.994-216 289.128-216q29.135 0 49.753 20.747 20.619 20.747 20.619 49.881t-20.747 49.753Q318.006-75 288.872-75Zm395.5 0q-29.135 0-49.753-20.747Q614-116.494 614-145.628t20.747-49.753Q655.494-216 684.628-216q29.135 0 49.753 20.747Q755-174.506 755-145.372t-20.747 49.753Q713.506-75 684.372-75ZM214.076-809h553.498q36.176 0 54.551 31.839Q840.5-745.323 823-713L707-502.5q-12.5 20.5-32.072 34-19.572 13.5-44.066 13.5H338l-49.5 94H766v79.5H279.189q-49.857 0-70.773-33.25Q187.5-348 210-386.765l61-111.448L126.191-807.5H45V-887h132.5l36.576 78Z"/></svg>